<?xml version="1.0"?>
<svg xmlns="http://www.w3.org/2000/svg" xmlns:xlink="http://www.w3.org/1999/xlink" version="1.1" id="Capa_1" x="0px" y="0px" viewBox="0 0 512 512" style="enable-background:new 0 0 512 512;" xml:space="preserve" width="512px" height="512px" class=""><g><path style="fill:#EDF2FA;" d="M392.772,502.012H50c-22.091,0-40-17.909-40-40V10h382.772V502.012z" data-original="#EDF2FA" class=""/><path style="fill:#62BFD1" d="M90.883,462c0,22.091-17.908,40-40,40H408.02l0,0c22.091,0,40-17.909,40-40H90.883z" data-original="#FFC66C" class="" data-old_color="#FFC66C"/><g>
	<ellipse style="fill:#62BFD1" cx="202" cy="160" rx="42.927" ry="96" data-original="#C9F3FF" class="" data-old_color="#C9F3FF"/>
	
		<ellipse transform="matrix(-0.866 -0.5 0.5 -0.866 296.9245 399.5787)" style="fill:#62BFD1" cx="201.997" cy="160.008" rx="95.998" ry="42.926" data-original="#C9F3FF" class="" data-old_color="#C9F3FF"/>
	
		<ellipse transform="matrix(-0.866 0.5 -0.5 -0.866 456.9416 197.5758)" style="fill:#62BFD1" cx="202" cy="160.008" rx="95.998" ry="42.926" data-original="#C9F3FF" class="" data-old_color="#C9F3FF"/>
</g><polygon style="fill:#FF5D5D;" points="467.5,325.935 467.5,419.935 423.5,376.524 379.5,419.935 379.5,325.935 " data-original="#FF5D5D" class=""/><circle style="fill:#62BFD1" cx="423.5" cy="257.3" r="78.5" data-original="#7D9BFF" class="active-path" data-old_color="#7D9BFF"/><polygon style="fill:#FFB954;" points="423.493,217.108 436.559,243.564 465.76,247.8 444.636,268.401 449.632,297.482   423.511,283.758 397.398,297.496 402.378,268.412 381.243,247.822 410.442,243.571 " data-original="#FFB954" class=""/><path d="M448.021,452H272.008c-5.522,0-10,4.478-10,10s4.478,10,10,10h164.299c-4.127,11.641-15.249,20-28.286,20H89.973  c4.377-5.817,7.516-12.614,9.021-20h90.515c5.522,0,10-4.478,10-10s-4.478-10-10-10H90c-5.522,0-10,4.478-10,10  c0,16.542-13.458,30-30,30s-30-13.458-30-30V20h364.007v123.5c0,5.522,4.478,10,10,10s10-4.478,10-10V10c0-5.522-4.478-10-10-10H10  C4.478,0,0,4.478,0,10v452c0,27.57,22.43,50,50,50h358.021c27.57,0,50-22.43,50-50C458.021,456.477,453.543,452,448.021,452z" data-original="#000000" class=""/><path d="M221.359,454.926c-1.859,1.87-2.93,4.439-2.93,7.07c0,2.63,1.07,5.21,2.93,7.069c1.86,1.86,4.44,2.931,7.07,2.931  s5.21-1.07,7.07-2.931c1.859-1.859,2.93-4.439,2.93-7.069c0-2.631-1.07-5.2-2.93-7.07c-1.86-1.86-4.44-2.93-7.07-2.93  S223.22,453.066,221.359,454.926z" data-original="#000000" class=""/><path d="M284.514,279.571H119.493c-5.522,0-10,4.478-10,10s4.478,10,10,10h165.021c5.522,0,10-4.478,10-10  S290.036,279.571,284.514,279.571z" data-original="#000000" class=""/><path d="M284.514,327.571H119.493c-5.522,0-10,4.478-10,10s4.478,10,10,10h165.021c5.522,0,10-4.478,10-10  S290.036,327.571,284.514,327.571z" data-original="#000000" class=""/><path d="M284.51,375.566c-2.63,0-5.21,1.07-7.07,2.931c-1.859,1.869-2.93,4.439-2.93,7.069c0,2.641,1.07,5.21,2.93,7.07  c1.86,1.87,4.44,2.93,7.07,2.93c2.64,0,5.21-1.06,7.07-2.93c1.859-1.85,2.93-4.43,2.93-7.07c0-2.63-1.07-5.21-2.93-7.069  C289.72,376.636,287.149,375.566,284.51,375.566z" data-original="#000000" class=""/><path d="M250.091,385.571c0-5.522-4.478-10-10-10H119.493c-5.522,0-10,4.478-10,10s4.478,10,10,10h120.598  C245.613,395.571,250.091,391.093,250.091,385.571z" data-original="#000000" class=""/><path d="M293.802,107c-7.821-13.55-25.293-19.646-49.217-17.176c-0.71,0.073-1.433,0.173-2.15,0.261  C232.879,67.721,218.559,54,202.004,54s-30.875,13.721-40.431,36.085c-0.718-0.088-1.441-0.188-2.151-0.261  C135.509,87.35,118.027,93.45,110.205,107c-8.27,14.323-3.565,33.562,10.992,53c-14.557,19.438-19.261,38.677-10.992,53  c6.858,11.88,21.105,17.722,39.526,17.722c3.784,0,7.755-0.265,11.863-0.757C171.149,252.3,185.461,266,202.004,266  s30.854-13.7,40.41-36.035c4.107,0.491,8.078,0.757,11.862,0.757c18.417,0,32.669-5.843,39.526-17.722  c7.823-13.551,4.366-31.737-9.734-51.211c-0.432-0.597-0.894-1.193-1.344-1.789c0.45-0.596,0.912-1.192,1.344-1.789  C298.169,138.738,301.625,120.55,293.802,107z M254.669,109.284c11.011,0,18.935,2.731,21.813,7.717  c3.361,5.822,0.61,16.065-7.333,27.653c-4.9-4.815-10.291-9.523-16.117-14.04c-0.996-7.435-2.368-14.493-4.074-21.102  C250.938,109.361,252.847,109.284,254.669,109.284z M218.467,188.516c-5.625,3.247-11.124,6.088-16.463,8.564  c-5.339-2.476-10.839-5.317-16.464-8.564s-10.835-6.589-15.648-9.975c-0.525-5.862-0.814-12.046-0.814-18.54  s0.289-12.679,0.814-18.54c4.814-3.386,10.024-6.728,15.648-9.975c5.465-3.155,10.976-6.005,16.463-8.54  c5.487,2.535,10.998,5.385,16.463,8.54c5.474,3.161,10.706,6.514,15.652,10.005c0.524,5.853,0.812,12.026,0.812,18.51  s-0.289,12.657-0.812,18.51C229.172,182.002,223.941,185.355,218.467,188.516z M229.656,205.132  c-0.164,0.638-0.323,1.285-0.493,1.909c-0.627-0.166-1.268-0.351-1.903-0.529c0.402-0.229,0.804-0.444,1.207-0.676  C228.867,205.605,229.258,205.365,229.656,205.132z M176.748,206.513c-0.636,0.178-1.277,0.363-1.904,0.529  c-0.169-0.621-0.328-1.265-0.49-1.9c0.396,0.231,0.788,0.464,1.186,0.694C175.943,206.069,176.345,206.284,176.748,206.513z   M149.085,161.375c-0.469-0.458-0.947-0.918-1.4-1.375c0.454-0.457,0.932-0.917,1.4-1.375c-0.003,0.458-0.008,0.915-0.008,1.375  S149.083,160.917,149.085,161.375z M174.832,113.009c0.616,0.163,1.236,0.336,1.857,0.509c-0.382,0.218-0.767,0.426-1.148,0.646  c-0.398,0.23-0.791,0.463-1.186,0.694C174.512,114.241,174.667,113.615,174.832,113.009z M229.656,114.869  c-0.398-0.233-0.789-0.473-1.19-0.704c-0.382-0.22-0.766-0.428-1.148-0.646c0.621-0.173,1.241-0.346,1.858-0.51  C229.341,113.618,229.497,114.247,229.656,114.869z M254.923,158.69c0.446,0.436,0.892,0.872,1.327,1.31  c-0.435,0.438-0.881,0.874-1.327,1.31c0.002-0.437,0.008-0.872,0.008-1.31S254.925,159.127,254.923,158.69z M202.004,74  c6.42,0,14.024,7.139,20.306,20.17c-6.649,1.843-13.452,4.17-20.307,6.972c-6.855-2.802-13.657-5.129-20.306-6.972  C187.98,81.139,195.583,74,202.004,74z M127.525,117c2.879-4.985,10.8-7.717,21.813-7.717c1.822,0,3.731,0.078,5.713,0.229  c-1.701,6.589-3.07,13.623-4.065,21.032c-5.925,4.57-11.337,9.278-16.196,14.05C126.688,132.672,124.322,122.549,127.525,117z   M127.525,203c-3.203-5.548-0.837-15.672,7.265-27.594c4.859,4.772,10.271,9.48,16.196,14.05c0.996,7.416,2.366,14.457,4.07,21.051  C140.679,211.562,130.729,208.55,127.525,203z M202.004,246c-6.406,0-13.99-7.109-20.264-20.086  c6.561-1.822,13.344-4.157,20.263-7.002c6.92,2.846,13.703,5.182,20.264,7.003C215.993,238.891,208.41,246,202.004,246z   M276.481,203c-3.203,5.548-13.152,8.56-27.529,7.505c1.708-6.614,3.082-13.678,4.078-21.119  c5.826-4.517,11.217-9.224,16.117-14.039C277.092,186.934,279.843,197.178,276.481,203z" data-original="#000000" class=""/><path d="M512,257.304c0-48.799-39.701-88.5-88.5-88.5s-88.5,39.701-88.5,88.5c0,28.485,13.531,53.866,34.5,70.065v92.565  c0,4.032,2.422,7.67,6.142,9.226c3.722,1.556,8.011,0.726,10.882-2.107l36.977-36.48l36.977,36.48  c1.909,1.884,4.446,2.882,7.025,2.882c1.3,0,2.61-0.253,3.856-0.774c3.72-1.556,6.142-5.193,6.142-9.226V327.37  C498.469,311.17,512,285.79,512,257.304z M355,257.304c0-37.771,30.729-68.5,68.5-68.5s68.5,30.729,68.5,68.5  s-30.729,68.5-68.5,68.5S355,295.076,355,257.304z M457.5,396.02l-26.977-26.614c-3.895-3.842-10.152-3.842-14.047,0L389.5,396.02  v-57.012c10.474,4.375,21.959,6.796,34,6.796s23.526-2.421,34-6.796V396.02z" data-original="#000000" class=""/><path d="M387.541,295.808c-0.643,3.751,0.9,7.543,3.98,9.779c1.742,1.265,3.804,1.908,5.877,1.908c1.593,0,3.191-0.38,4.654-1.149  l21.462-11.29l21.466,11.278c3.371,1.771,7.453,1.475,10.531-0.764c3.079-2.238,4.62-6.03,3.976-9.782l-4.104-23.899l17.36-16.931  c2.725-2.658,3.704-6.632,2.527-10.252s-4.308-6.257-8.074-6.804l-23.999-3.48l-10.738-21.743c-1.685-3.411-5.16-5.571-8.966-5.571  c-0.001,0-0.002,0-0.003,0c-3.807,0.001-7.282,2.163-8.966,5.577l-10.726,21.747l-23.996,3.494  c-3.767,0.548-6.896,3.188-8.071,6.808c-1.175,3.621-0.193,7.595,2.533,10.251l17.369,16.922L387.541,295.808z M411.883,253.466  c3.257-0.474,6.072-2.521,7.528-5.473l4.089-8.29l4.094,8.289c1.457,2.95,4.273,4.995,7.53,5.468l9.148,1.327l-6.618,6.454  c-2.355,2.298-3.431,5.608-2.873,8.852l1.564,9.112l-8.183-4.3c-2.913-1.529-6.394-1.528-9.307,0.002l-8.183,4.305l1.561-9.112  c0.556-3.243-0.521-6.554-2.878-8.851l-6.622-6.451L411.883,253.466z" data-original="#000000" class=""/></g> </svg>
