<?xml version="1.0"?>
<svg xmlns="http://www.w3.org/2000/svg" xmlns:xlink="http://www.w3.org/1999/xlink" version="1.1" id="Capa_1" x="0px" y="0px" viewBox="0 0 512.001 512.001" style="enable-background:new 0 0 512.001 512.001;" xml:space="preserve" width="512px" height="512px" class=""><g><path style="fill:#62BFD1" d="M343.905,290.597L490.96,437.653c14.719,14.719,14.719,38.583,0,53.303l0,0  c-14.719,14.719-38.583,14.719-53.303,0L290.602,343.899L343.905,290.597z" data-original="#FFC66C" class="active-path" data-old_color="#FFC66C"/><rect x="300.568" y="308.545" transform="matrix(0.7071 -0.7071 0.7071 0.7071 -140.1017 338.2531)" style="fill:#FFFFFF;" width="75.378" height="59.398" data-original="#FFFFFF" class=""/><circle style="fill:#C9F3FF;" cx="189.997" cy="189.997" r="179.997" data-original="#C9F3FF" class=""/><g>
	<ellipse style="fill:#62BFD1" cx="189.997" cy="189.997" rx="60.783" ry="135.928" data-original="#72D8FF" class="" data-old_color="#72D8FF"/>
	
		<ellipse transform="matrix(-0.866 -0.5 0.5 -0.866 259.5319 449.5569)" style="fill:#62BFD1" cx="189.997" cy="190.007" rx="135.925" ry="60.782" data-original="#72D8FF" class="" data-old_color="#72D8FF"/>
	
		<ellipse transform="matrix(-0.866 0.5 -0.5 -0.866 449.5429 259.556)" style="fill:#62BFD1" cx="189.997" cy="190.007" rx="135.925" ry="60.782" data-original="#72D8FF" class="" data-old_color="#72D8FF"/>
</g><path d="M310.825,70.413c1.955,1.974,4.528,2.961,7.103,2.961c2.544,0,5.089-0.965,7.039-2.897  c3.923-3.888,3.951-10.219,0.063-14.142l-0.683-0.687c-3.905-3.904-10.237-3.904-14.143,0c-3.905,3.905-3.905,10.237,0,14.143  L310.825,70.413z" data-original="#000000" class=""/><path d="M498.032,430.582l-144.281-144.28c13.948-23.726,22.711-50.371,25.369-78.024c4.147-43.14-6.631-86.715-30.347-122.7  c-3.04-4.612-9.242-5.887-13.853-2.847c-4.611,3.039-5.886,9.241-2.847,13.853c44.138,66.97,34.94,156.809-21.87,213.618  c-32.108,32.109-74.799,49.793-120.206,49.793s-88.097-17.684-120.206-49.793C37.683,278.092,20,235.403,20,189.997  c0-45.407,17.684-88.097,49.792-120.206C126.4,13.182,216.033,3.848,282.918,47.599c4.623,3.023,10.82,1.727,13.843-2.896  c3.023-4.621,1.727-10.819-2.895-13.843C257.903,7.337,214.411-3.301,171.401,0.905C127.795,5.171,86.686,24.612,55.65,55.648  C19.764,91.536,0,139.248,0,189.997c0,50.748,19.764,98.46,55.65,134.348c35.887,35.887,83.6,55.65,134.349,55.65  c34.441,0,67.479-9.113,96.376-26.181l144.212,144.212c9.008,9.008,20.984,13.969,33.722,13.969  c12.739,0,24.715-4.961,33.722-13.969c9.008-9.008,13.969-20.983,13.969-33.722C512.001,451.564,507.039,439.589,498.032,430.582z   M324.346,324.344c6.58-6.58,12.633-13.617,18.136-21.029l29.281,29.28l-39.16,39.16l-29.244-29.244  C310.717,337.017,317.733,330.956,324.346,324.344z M483.89,483.884c-5.23,5.23-12.184,8.111-19.581,8.111  c-7.397,0-14.351-2.881-19.581-8.111l-97.985-97.986l39.161-39.16l97.985,97.985c5.23,5.23,8.111,12.185,8.111,19.581  C492,471.699,489.119,478.655,483.89,483.884z" data-original="#000000" class=""/><path d="M316.378,117.03c-10.208-17.682-33.526-25.589-65.659-22.262c-2.039,0.211-4.106,0.476-6.188,0.773  c-0.784-1.952-1.588-3.875-2.425-5.746c-13.187-29.49-31.692-45.731-52.108-45.731s-38.921,16.241-52.108,45.731  c-0.837,1.871-1.641,3.793-2.425,5.746c-2.083-0.297-4.15-0.562-6.188-0.773c-32.134-3.324-55.451,4.581-65.659,22.262  s-5.396,41.827,13.55,67.993c1.202,1.66,2.458,3.318,3.757,4.973c-1.299,1.655-2.555,3.313-3.757,4.973  c-18.946,26.166-23.759,50.312-13.55,67.993c8.682,15.038,26.848,23.005,51.853,23.005c4.395,0,9.002-0.246,13.805-0.743  c2.039-0.211,4.105-0.476,6.188-0.773c0.784,1.953,1.588,3.875,2.425,5.747c13.187,29.489,31.692,45.73,52.108,45.73  s38.921-16.241,52.108-45.73c0.837-1.871,1.641-3.794,2.425-5.747c2.083,0.297,4.15,0.562,6.188,0.773  c4.805,0.497,9.409,0.743,13.805,0.743c25.004-0.001,43.172-7.968,51.853-23.005c10.208-17.681,5.396-41.827-13.55-67.993  c-1.202-1.66-2.458-3.318-3.757-4.973c1.299-1.655,2.555-3.313,3.757-4.973C321.774,158.857,326.586,134.711,316.378,117.03z   M189.998,64.064c12.072,0,24.835,13.067,34.547,35.483c-11.233,2.848-22.839,6.751-34.547,11.621  c-11.709-4.87-23.314-8.773-34.547-11.621C165.163,77.131,177.927,64.064,189.998,64.064z M240.781,189.997  c0,9.928-0.483,19.448-1.37,28.501c-7.561,5.417-15.59,10.61-24.022,15.479c-8.424,4.864-16.928,9.216-25.392,13.053  c-8.464-3.837-16.968-8.19-25.392-13.053c-8.432-4.868-16.46-10.062-24.022-15.479c-0.887-9.053-1.37-18.573-1.37-28.501  c0-9.928,0.483-19.449,1.37-28.501c7.561-5.417,15.59-10.61,24.022-15.479c8.424-4.864,16.928-9.216,25.392-13.053  c8.464,3.837,16.968,8.19,25.392,13.053c8.432,4.868,16.46,10.062,24.022,15.479C240.298,170.548,240.781,180.069,240.781,189.997z   M260.55,178.348c4.288,3.828,8.314,7.719,12.061,11.649c-3.746,3.93-7.773,7.821-12.061,11.649c0.141-3.858,0.23-7.738,0.23-11.648  C260.78,186.086,260.692,182.206,260.55,178.348z M235.365,245.286c-1.189,5.707-2.548,11.135-4.053,16.258  c-5.279-1.28-10.665-2.823-16.127-4.623c3.412-1.806,6.817-3.67,10.204-5.625C228.773,249.342,232.098,247.335,235.365,245.286z   M164.811,256.921c-5.462,1.8-10.848,3.343-16.127,4.623c-1.505-5.124-2.864-10.552-4.053-16.258c3.268,2.05,6.593,4.056,9.976,6.01  C157.994,253.251,161.399,255.115,164.811,256.921z M119.446,201.645c-4.288-3.828-8.314-7.719-12.061-11.649  c3.746-3.93,7.773-7.821,12.061-11.649c-0.141,3.858-0.23,7.739-0.23,11.649C119.216,193.907,119.304,197.787,119.446,201.645z   M144.631,134.707c1.189-5.706,2.548-11.134,4.053-16.258c5.279,1.28,10.665,2.822,16.127,4.623  c-3.412,1.806-6.817,3.67-10.204,5.625C151.223,130.651,147.898,132.657,144.631,134.707z M225.389,128.697  c-3.387-1.955-6.792-3.819-10.204-5.625c5.462-1.8,10.848-3.343,16.127-4.623c1.505,5.124,2.864,10.552,4.053,16.258  C232.098,132.657,228.773,130.651,225.389,128.697z M93.367,173.294c-13.839-19.112-18.37-35.975-12.429-46.264  c4.885-8.461,17.158-13.013,34.416-13.013c3.729,0,7.693,0.213,11.863,0.645c0.567,0.059,1.147,0.143,1.718,0.209  c-3.147,11.143-5.568,23.134-7.203,35.697c-10.067,7.7-19.256,15.795-27.337,24.095C94.057,174.206,93.697,173.75,93.367,173.294z   M127.218,265.331c-23.474,2.429-40.339-2.079-46.28-12.368c-5.94-10.289-1.41-27.151,12.429-46.264  c0.331-0.457,0.69-0.912,1.029-1.369c8.081,8.299,17.27,16.395,27.337,24.095c1.636,12.563,4.057,24.554,7.203,35.696  C128.365,265.188,127.785,265.272,127.218,265.331z M189.998,315.928c-12.072,0-24.836-13.067-34.547-35.483  c11.234-2.848,22.839-6.75,34.547-11.621c11.709,4.87,23.314,8.773,34.547,11.621C214.833,302.861,202.069,315.928,189.998,315.928z   M286.629,206.699c13.839,19.113,18.37,35.975,12.429,46.264c-5.94,10.289-22.808,14.797-46.28,12.368  c-0.567-0.059-1.147-0.143-1.718-0.209c3.147-11.143,5.568-23.135,7.203-35.696c10.067-7.7,19.256-15.795,27.337-24.095  C285.939,205.787,286.299,206.242,286.629,206.699z M286.629,173.294c-0.331,0.457-0.69,0.912-1.029,1.369  c-8.081-8.299-17.27-16.395-27.337-24.095c-1.636-12.563-4.057-24.554-7.203-35.697c0.571-0.066,1.152-0.151,1.718-0.209  c4.172-0.432,8.133-0.645,11.863-0.645c17.257,0,29.532,4.553,34.416,13.013C304.999,137.319,300.469,154.182,286.629,173.294z" data-original="#000000" class=""/><path d="M256.005,451.93h-91.665c-5.523,0-10,4.478-10,10s4.477,10,10,10h91.665c5.523,0,10-4.478,10-10  S261.527,451.93,256.005,451.93z" data-original="#000000" class=""/><path d="M106.698,451.93H10c-5.523,0-10,4.478-10,10s4.477,10,10,10h96.698c5.523,0,10-4.478,10-10S112.221,451.93,106.698,451.93z" data-original="#000000" class=""/><path d="M10,431.931h205.774c5.523,0,10-4.478,10-10s-4.477-10-10-10H10c-5.523,0-10,4.478-10,10S4.477,431.931,10,431.931z" data-original="#000000" class=""/><path d="M10,392.033h65.176c5.523,0,10-4.478,10-10s-4.477-10-10-10H10c-5.523,0-10,4.478-10,10S4.477,392.033,10,392.033z" data-original="#000000" class=""/><path d="M256.005,411.933c-2.63,0-5.21,1.061-7.07,2.931c-1.86,1.859-2.93,4.43-2.93,7.069c0,2.63,1.07,5.21,2.93,7.07  c1.86,1.86,4.44,2.93,7.07,2.93c2.63,0,5.21-1.069,7.07-2.93s2.93-4.44,2.93-7.07c0-2.63-1.07-5.21-2.93-7.069  C261.214,412.994,258.634,411.933,256.005,411.933z" data-original="#000000" class=""/><path d="M407.668,74h54.999c5.523,0,10-4.478,10-10c0-5.522-4.477-10-10-10h-54.999c-5.523,0-10,4.478-10,10S402.145,74,407.668,74z  " data-original="#000000" class=""/><path d="M502,74c2.63,0,5.21-1.07,7.07-2.931C510.93,69.21,512,66.63,512,64s-1.07-5.21-2.93-7.07S504.63,54,502,54  c-2.63,0-5.21,1.069-7.07,2.93C493.07,58.79,492,61.37,492,64s1.07,5.21,2.93,7.069C496.79,72.929,499.369,74,502,74z" data-original="#000000" class=""/><path d="M407.668,119.499h94.331c5.523,0,10-4.478,10-10c0-5.522-4.477-10-10-10h-94.331c-5.523,0-10,4.478-10,10  C397.668,115.021,402.145,119.499,407.668,119.499z" data-original="#000000" class=""/></g> </svg>
