<?xml version="1.0"?>
<svg xmlns="http://www.w3.org/2000/svg" height="512px" viewBox="0 0 480 480.61095" width="512px" class=""><g><path d="m398.835938 132.238281c-6.019532 19.164063-25.3125 30.890625-45.09375 27.40625-19.78125-3.480469-33.914063-21.089843-33.027344-41.15625.882812-20.0625 16.511718-36.363281 36.523437-38.089843-8.113281-17.695313-12.3125-36.933594-12.320312-56.398438.019531-5.347656.367187-10.691406 1.039062-16h-17.039062v30.078125c-8.277344 3.25-16.015625 7.730469-22.960938 13.28125l-26-15.039063-32 55.359376 26.078125 15.121093c-.695312 4.367188-1.070312 8.777344-1.117187 13.199219.046875 4.421875.421875 8.832031 1.117187 13.199219l-5.917968 3.441406 12.800781 15.359375h-24l-.882813 10.398438 24 41.28125 26-15.039063c6.921875 5.546875 14.632813 10.023437 22.882813 13.28125v30.078125h64v-30.078125c8.273437-3.25 16.015625-7.730469 22.957031-13.28125l26 15.039063 25.679688-44.320313c-24.976563-2.488281-48.773438-11.878906-68.71875-27.121094zm0 0" fill="#cff09e" data-original="#CFF09E" class="active-path" data-old_color="#cff09e" style="fill:#C7EBFF"/><path d="m240.917969 64c-97.203125 0-176 78.796875-176 176s78.796875 176 176 176c97.199219 0 176-78.796875 176-176s-78.800781-176-176-176zm36 233.679688 8-13.839844-45.121094-34.078125c-.84375-.679688-1.574219-1.492188-2.160156-2.402344-3.039063-1.234375-5.117188-4.085937-5.359375-7.359375l-7.359375-88h-24l40-48 40 48h-24l-6.882813 82.71875 50.882813 21.28125 8-13.839844 25.519531 51.679688zm0 0" fill="#a8dba8" data-original="#A8DBA8" class="" style="fill:#23BDDB" data-old_color="#a8dba8"/><path d="m240.917969 96c-79.53125 0-144 64.472656-144 144s64.46875 144 144 144c79.527343 0 144-64.472656 144-144s-64.472657-144-144-144zm36 201.679688 8-13.839844-45.121094-34.078125c-.84375-.679688-1.574219-1.492188-2.160156-2.402344-3.039063-1.234375-5.117188-4.085937-5.359375-7.359375l-7.359375-88h-24l40-48 40 48h-24l-6.882813 82.71875 50.882813 21.28125 8-13.839844 25.519531 51.679688zm0 0" fill="#79bd9a" data-original="#79BD9A" class="" style="fill:#C7EBFF" data-old_color="#79bd9a"/><path d="m334.4375 294-57.519531 3.679688 8-13.839844-45.121094-34.078125c-3.636719-2.773438-4.628906-7.820313-2.320313-11.761719zm0 0" fill="#cff09e" data-original="#CFF09E" class="active-path" data-old_color="#cff09e" style="fill:#C7EBFF"/><path d="m200.917969 152h24l7.359375 88c.296875 4.539062 4.089844 8.050781 8.640625 8v-144zm0 0" fill="#cff09e" data-original="#CFF09E" class="active-path" data-old_color="#cff09e" style="fill:#C7EBFF"/><path d="m264.917969 240c0 13.253906-10.746094 24-24 24-13.257813 0-24-10.746094-24-24s10.742187-24 24-24c13.253906 0 24 10.746094 24 24zm0 0" fill="#cff09e" data-original="#CFF09E" class="active-path" data-old_color="#cff09e" style="fill:#C7EBFF"/><path d="m232.917969 360c0 61.855469-50.144531 112-112 112-61.859375 0-112-50.144531-112-112s50.140625-112 112-112c61.855469 0 112 50.144531 112 112zm0 0" fill="#a8dba8" data-original="#A8DBA8" class="" style="fill:#23BDDB" data-old_color="#a8dba8"/><path d="m200.917969 360c0 44.183594-35.820313 80-80 80-44.183594 0-80-35.816406-80-80s35.816406-80 80-80c44.179687 0 80 35.816406 80 80zm0 0" fill="#cff09e" data-original="#CFF09E" class="active-path" data-old_color="#cff09e" style="fill:#C7EBFF"/><g fill="#3b8686"><path d="m476.917969 141.359375-21.523438-12.398437c.75-5.949219.75-11.972657 0-17.921876l21.523438-12.398437c3.667969-2.1875 4.972656-6.871094 2.957031-10.640625l-32-56c-1.054688-1.851562-2.804688-3.207031-4.863281-3.761719-2.058594-.554687-4.25-.265625-6.09375.800781l-21.441407 12.722657c-4.882812-3.464844-10.082031-6.460938-15.519531-8.960938v-24.800781c0-4.417969-3.582031-8-8-8h-64c-4.417969 0-8 3.582031-8 8v24.800781c-5.613281 2.457031-10.972656 5.457031-16 8.960938l-21.039062-12.402344c-3.742188-2.226563-8.578125-1.054687-10.882813 2.640625l-14.160156 24.800781c-5.597656-.800781-11.277344-.800781-16.957031-.800781-32.128907-.023438-63.695313 8.417969-91.523438 24.480469h-.476562c-27.628907 16.105469-50.613281 39.09375-66.722657 66.71875v.402343c-16.46875 28.011719-25.191406 59.902344-25.277343 92.398438.035156 6.039062.382812 12.074219 1.039062 18.078125-42.535156 25.867187-64.683593 75.308594-55.667969 124.265625 9.015626 48.957031 47.324219 87.265625 96.28125 96.28125 48.960938 9.015625 98.402344-13.128906 124.265626-55.664062 6.003906.65625 12.039062 1.003906 18.082031 1.039062 32.03125.152344 63.539062-8.125 91.359375-24h.640625c27.554687-16.066406 50.507812-38.960938 66.636719-66.480469.085937-.214843.226562-.40625.402343-.558593 16.453125-28.210938 25.070313-60.304688 24.960938-92.960938.003906-12.992188-1.390625-25.945312-4.160157-38.640625l16 9.28125c1.21875.691406 2.597657 1.050781 4 1.039063 2.867188.011718 5.523438-1.515626 6.957032-4l32-55.359376c2.253906-3.800781 1-8.707031-2.796875-10.960937zm-356 322.640625c-57.4375 0-104-46.5625-104-104s46.5625-104 104-104 104 46.5625 104 104-46.5625 104-104 104zm210.71875-82.800781-8-13.597657c-2.210938-3.84375-7.117188-5.171874-10.960938-2.960937-3.84375 2.207031-5.167969 7.117187-2.960937 10.960937l8 13.597657c-23.71875 12.335937-50.0625 18.78125-76.796875 18.800781-3.28125 0-6.5625 0-9.921875 0 19.84375-45.269531 9.898437-98.078125-25.050782-133.027344-34.953124-34.949218-87.757812-44.894531-133.027343-25.050781 0-3.363281 0-6.722656 0-9.921875.003906-26.765625 6.453125-53.132812 18.796875-76.878906l13.601562 8c1.195313.675781 2.546875 1.035156 3.921875 1.039062 2.867188.011719 5.523438-1.515625 6.957031-4 1.074219-1.835937 1.375-4.023437.835938-6.078125-.539062-2.054687-1.875-3.8125-3.714844-4.882812l-13.601562-8c13.035156-20.234375 30.246094-37.445313 50.480468-50.480469l8 13.601562c1.070313 1.835938 2.828126 3.175782 4.882813 3.714844 2.058594.539063 4.242187.238282 6.078125-.835937 3.808594-2.195313 5.132812-7.054688 2.960938-10.878907l-8-13.601562c48.1875-25.070312 105.570312-25.070312 153.757812 0l-8 13.601562c-1.058594 1.855469-1.335938 4.054688-.765625 6.113282s1.941406 3.804687 3.808594 4.847656c1.832031 1.074219 4.019531 1.375 6.078125.832031 2.054687-.539062 3.8125-1.875 4.878906-3.714843l8-13.597657c20.234375 13.03125 37.449219 30.246094 50.480469 50.480469l-13.597657 8c-3.773437 2.136719-5.160156 6.890625-3.121093 10.71875 1.433593 2.484375 4.089843 4.011719 6.960937 4 1.375-.003906 2.722656-.363281 3.917969-1.039062l13.601563-8c11.191406 21.378906 17.605468 44.9375 18.800781 69.039062h-16c-4.417969 0-8 3.582031-8 8s3.582031 8 8 8h16c-1.09375 24.019531-7.371094 47.515625-18.402344 68.878906l-13.597656-8c-3.824219-2.171875-8.683594-.847656-10.882813 2.960938-1.125 1.847656-1.453125 4.074218-.914062 6.167968.542968 2.097657 1.914062 3.882813 3.796875 4.953126l13.597656 8c-13.175781 20.1875-30.523437 37.320312-50.878906 50.238281zm57.917969-249.519531c-11.609376-15.835938-25.648438-29.742188-41.597657-41.199219 3.792969-1.625 7.875-2.46875 12-2.480469 17.671875 0 32 14.328125 32 32-.019531 4.015625-.835937 7.984375-2.402343 11.679688zm48.402343 61.121093-19.121093-11.039062c-1.148438-.652344-2.441407-1.011719-3.757813-1.042969-3.863281-11.101562-8.765625-21.816406-14.640625-32 0 0 0 0 0-.398438-.15625-.335937-.34375-.660156-.5625-.960937 5.441406-8.070313 8.265625-17.625 8.082031-27.359375-.109375-17.738281-9.996093-33.96875-25.703125-42.210938-15.710937-8.238281-34.679687-7.140624-49.335937 2.851563h-.480469c-17.824219-10.351563-37.273438-17.601563-57.519531-21.441406l6.957031-12 19.121094 11.039062c2.835937 1.644531 6.386718 1.390625 8.960937-.636719 6.308594-5.058593 13.347657-9.132812 20.878907-12.082031 3.078124-1.1875 5.109374-4.140625 5.121093-7.441406v-22.078125h48v22.078125c-.003906 3.28125 1.992188 6.230469 5.039063 7.441406 7.539062 2.929688 14.582031 7.003907 20.878906 12.082031 2.574219 2.027344 6.125 2.28125 8.960938.636719l19.121093-11.039062 24 41.601562-19.121093 11.039063c-2.808594 1.625-4.355469 4.785156-3.917969 8 1.386719 7.941406 1.386719 16.058594 0 24-.4375 3.214844 1.109375 6.375 3.917969 8l19.121093 11.039062zm0 0" data-original="#3B8686" class="" style="fill:#000000" data-old_color="#3B8686"/><path d="m120.917969 328c6.625 0 12 5.371094 12 12 0 4.417969 3.582031 8 8 8s8-3.582031 8-8c-.050781-12.339844-8.175781-23.195312-20-26.71875v-9.28125c0-4.417969-3.582031-8-8-8s-8 3.582031-8 8v9.28125c-13.367188 3.902344-21.816407 17.058594-19.800781 30.839844 2.015624 13.777344 13.875 23.964844 27.800781 23.878906 6.625 0 12 5.371094 12 12s-5.375 12-12 12c-6.628907 0-12-5.371094-12-12 0-4.417969-3.582031-8-8-8s-8 3.582031-8 8c.046875 12.339844 8.171875 23.195312 20 26.71875v9.28125c0 4.417969 3.582031 8 8 8s8-3.582031 8-8v-9.28125c13.367187-3.902344 21.8125-17.058594 19.796875-30.839844-2.011719-13.777344-13.875-23.964844-27.796875-23.878906-6.628907 0-12-5.371094-12-12s5.371093-12 12-12zm0 0" data-original="#3B8686" class="" style="fill:#000000" data-old_color="#3B8686"/><path d="m120.917969 272c-48.601563 0-88 39.398438-88 88s39.398437 88 88 88c48.597656 0 88-39.398438 88-88s-39.402344-88-88-88zm0 160c-39.765625 0-72-32.234375-72-72s32.234375-72 72-72c39.761719 0 72 32.234375 72 72s-32.238281 72-72 72zm0 0" data-original="#3B8686" class="" style="fill:#000000" data-old_color="#3B8686"/><path d="m316.035156 238.71875c-1.3125-2.613281-3.953125-4.300781-6.878906-4.398438-2.953125-.101562-5.722656 1.4375-7.199219 4l-4.480469 8-25.039062-10.558593c-1.210938-8.472657-5.761719-16.109375-12.640625-21.203125l4.480469-54.558594h16.640625c3.105469.003906 5.933593-1.789062 7.253906-4.601562 1.320313-2.808594.890625-6.132813-1.09375-8.519532l-40-48c-1.523437-1.832031-3.78125-2.894531-6.160156-2.894531-2.382813 0-4.640625 1.0625-6.160157 2.894531l-40 48c-1.988281 2.386719-2.417968 5.710938-1.097656 8.519532 1.320313 2.8125 4.148438 4.605468 7.257813 4.601562h16.636719l4.480468 54.238281c-11.109375 8.191407-15.71875 22.582031-11.429687 35.703125 4.289062 13.121094 16.507812 22.011719 30.3125 22.058594 4.082031-.019531 8.125-.808594 11.917969-2.320312l21.601562 16-4.480469 8c-1.433593 2.480468-1.429687 5.535156.007813 8.015624 1.4375 2.476563 4.085937 3.996094 6.953125 3.984376h.476562l57.601563-3.679688c2.664062-.179688 5.0625-1.675781 6.394531-3.988281 1.335937-2.3125 1.425781-5.136719.246094-7.53125zm-83.117187-87.359375c-.335938-4.164063-3.820313-7.371094-8-7.359375h-6.882813l22.882813-27.519531 22.878906 27.519531h-6.878906c-4.179688-.011719-7.667969 3.195312-8 7.359375l-4.722657 56.640625c-1.117187 0-2.160156 0-3.277343 0-1.121094 0-2.160157 0-3.28125 0zm-8 88.640625c.015625-6.15625 3.5625-11.753906 9.117187-14.398438 4.21875-1.925781 9.0625-1.925781 13.28125 0 5.742188 2.503907 9.496094 8.132813 9.601563 14.398438v.878906c-.28125 4.964844-2.851563 9.519532-6.960938 12.320313-4.898437 3.355469-11.25 3.722656-16.5.953125-5.253906-2.769532-8.539062-8.214844-8.539062-14.152344zm66.398437 48.800781.480469-.960937c1.984375-3.476563 1.097656-7.886719-2.082031-10.320313l-24-17.917969c1.894531-2.425781 3.40625-5.121093 4.480468-8l27.28125 11.519532c3.703126 1.546875 7.980469.109375 10-3.359375l.558594-.960938 13.601563 27.597657zm0 0" data-original="#3B8686" class="" style="fill:#000000" data-old_color="#3B8686"/></g></g> </svg>
